<svg width="92" height="40" viewBox="0 0 92 40" fill="none" xmlns="http://www.w3.org/2000/svg">
<rect width="92" height="40" rx="12" fill="#F8F3EC"/>
<path d="M24.518 24.16L25.708 23.88V16.32L24.518 16.04V15.27L27.15 15.2H28.76C30.51 15.2 31.77 15.97 31.77 17.65C31.77 18.91 31.126 19.624 29.95 19.918C31.42 20.254 32.12 21.08 32.12 22.2C32.12 24.16 30.86 25 28.55 25H24.518V24.16ZM27.15 19.4H28.2C29.46 19.4 30.3 18.91 30.3 17.79C30.3 16.81 29.6 16.32 28.69 16.32H27.15V19.4ZM27.15 23.88H28.62C29.95 23.88 30.65 23.32 30.65 22.27C30.65 20.87 29.74 20.45 28.2 20.45H27.15V23.88ZM36.9484 17.44C39.0484 17.44 40.2384 18.91 40.2384 21.15C40.2384 23.53 38.8384 25.14 36.7384 25.14C34.6384 25.14 33.3784 23.88 33.3784 21.36C33.3784 18.98 34.8484 17.44 36.9484 17.44ZM36.8784 18.56C35.4784 18.56 34.8484 19.47 34.8484 21.29C34.8484 22.97 35.4084 24.02 36.8084 24.02C38.2084 24.02 38.7684 23.04 38.7684 21.22C38.7684 19.68 38.2784 18.56 36.8784 18.56ZM45.7587 16.39C44.3867 16.39 43.2667 15.662 43.2527 14.374L45.1707 14.304C45.1707 15.116 45.5487 15.508 46.1507 15.508C46.7527 15.508 47.1167 15.116 47.1167 14.374L48.2787 14.304C48.2787 15.592 47.1307 16.39 45.7587 16.39ZM49.9727 18.42L48.7827 18.7V23.88L49.9727 24.23V25H46.5427V24.23L47.4527 23.88V20.31L43.8827 23.53V23.88L44.7927 24.23V25H41.3627V24.23L42.5527 23.88V18.7L41.3627 18.42V17.65L44.7927 17.58V18.42L43.8827 18.7V22.27L47.4527 19.05V18.7L46.5427 18.42V17.65L49.9727 17.58V18.42ZM57.8171 17.58L57.7471 20.17H56.7671L56.5571 18.7H54.9471V23.88L56.3471 24.23V25H52.1471V24.23L53.5471 23.88V18.7H51.9371L51.7271 20.17H50.7471L50.6771 17.58H57.8171ZM67.1309 18.42L65.9409 18.7V23.88L67.1309 24.23V25H63.7009V24.23L64.6109 23.88V20.31L61.0409 23.53V23.88L61.9509 24.23V25H58.5209V24.23L59.7109 23.88V18.7L58.5209 18.42V17.65L61.9509 17.58V18.42L61.0409 18.7V22.27L64.6109 19.05V18.7L63.7009 18.42V17.65L67.1309 17.58V18.42Z" fill="#322E29"/>
</svg>
